<mxfile host="Electron" agent="Mozilla/5.0 (Macintosh; Intel Mac OS X 10_15_7) AppleWebKit/537.36 (KHTML, like Gecko) draw.io/26.0.9 Chrome/128.0.6613.186 Electron/32.2.5 Safari/537.36" version="26.0.9">
  <diagram name="Page-1" id="2YBvvXClWsGukQMizWep">
    <mxGraphModel dx="1230" dy="934" grid="0" gridSize="10" guides="1" tooltips="1" connect="1" arrows="1" fold="1" page="0" pageScale="1" pageWidth="850" pageHeight="1100" math="0" shadow="0">
      <root>
        <mxCell id="0" />
        <mxCell id="1" parent="0" />
        <mxCell id="aM9ryv3xv72pqoxQDRHE-1" value=":Main" style="shape=umlLifeline;perimeter=lifelinePerimeter;whiteSpace=wrap;html=1;container=0;dropTarget=0;collapsible=0;recursiveResize=0;outlineConnect=0;portConstraint=eastwest;newEdgeStyle={&quot;edgeStyle&quot;:&quot;elbowEdgeStyle&quot;,&quot;elbow&quot;:&quot;vertical&quot;,&quot;curved&quot;:0,&quot;rounded&quot;:0};" parent="1" vertex="1">
          <mxGeometry x="40" y="130" width="100" height="300" as="geometry" />
        </mxCell>
        <mxCell id="aM9ryv3xv72pqoxQDRHE-2" value="" style="html=1;points=[];perimeter=orthogonalPerimeter;outlineConnect=0;targetShapes=umlLifeline;portConstraint=eastwest;newEdgeStyle={&quot;edgeStyle&quot;:&quot;elbowEdgeStyle&quot;,&quot;elbow&quot;:&quot;vertical&quot;,&quot;curved&quot;:0,&quot;rounded&quot;:0};" parent="aM9ryv3xv72pqoxQDRHE-1" vertex="1">
          <mxGeometry x="45" y="70" width="10" height="190" as="geometry" />
        </mxCell>
        <mxCell id="aM9ryv3xv72pqoxQDRHE-3" value="start game" style="html=1;verticalAlign=bottom;startArrow=oval;endArrow=block;startSize=8;edgeStyle=elbowEdgeStyle;elbow=vertical;curved=0;rounded=0;" parent="aM9ryv3xv72pqoxQDRHE-1" target="aM9ryv3xv72pqoxQDRHE-2" edge="1">
          <mxGeometry relative="1" as="geometry">
            <mxPoint x="-15" y="70" as="sourcePoint" />
          </mxGeometry>
        </mxCell>
        <mxCell id="aM9ryv3xv72pqoxQDRHE-5" value=":Plane" style="shape=umlLifeline;perimeter=lifelinePerimeter;whiteSpace=wrap;html=1;container=0;dropTarget=0;collapsible=0;recursiveResize=0;outlineConnect=0;portConstraint=eastwest;newEdgeStyle={&quot;edgeStyle&quot;:&quot;elbowEdgeStyle&quot;,&quot;elbow&quot;:&quot;vertical&quot;,&quot;curved&quot;:0,&quot;rounded&quot;:0};" parent="1" vertex="1">
          <mxGeometry x="200" y="130" width="100" height="300" as="geometry" />
        </mxCell>
        <mxCell id="aM9ryv3xv72pqoxQDRHE-6" value="" style="html=1;points=[];perimeter=orthogonalPerimeter;outlineConnect=0;targetShapes=umlLifeline;portConstraint=eastwest;newEdgeStyle={&quot;edgeStyle&quot;:&quot;elbowEdgeStyle&quot;,&quot;elbow&quot;:&quot;vertical&quot;,&quot;curved&quot;:0,&quot;rounded&quot;:0};" parent="aM9ryv3xv72pqoxQDRHE-5" vertex="1">
          <mxGeometry x="45" y="80" width="10" height="170" as="geometry" />
        </mxCell>
        <mxCell id="aM9ryv3xv72pqoxQDRHE-7" value="&lt;p style=&quot;margin: 0px; font-variant-numeric: normal; font-variant-east-asian: normal; font-variant-alternates: normal; font-size-adjust: none; font-kerning: auto; font-optical-sizing: auto; font-feature-settings: normal; font-variation-settings: normal; font-variant-position: normal; font-stretch: normal; line-height: normal; font-family: &amp;quot;.AppleSystemUIFontMonospaced&amp;quot;; text-align: start; text-wrap: wrap;&quot; class=&quot;p1&quot;&gt;&lt;br&gt;&lt;/p&gt;" style="html=1;verticalAlign=bottom;endArrow=block;edgeStyle=elbowEdgeStyle;elbow=vertical;curved=0;rounded=0;" parent="1" source="aM9ryv3xv72pqoxQDRHE-2" target="aM9ryv3xv72pqoxQDRHE-6" edge="1">
          <mxGeometry relative="1" as="geometry">
            <mxPoint x="195" y="220" as="sourcePoint" />
            <Array as="points">
              <mxPoint x="180" y="210" />
            </Array>
          </mxGeometry>
        </mxCell>
        <mxCell id="8OTg5D09Tg-OPyaiiAYL-3" value=":Bullet" style="shape=umlLifeline;perimeter=lifelinePerimeter;whiteSpace=wrap;html=1;container=0;dropTarget=0;collapsible=0;recursiveResize=0;outlineConnect=0;portConstraint=eastwest;newEdgeStyle={&quot;edgeStyle&quot;:&quot;elbowEdgeStyle&quot;,&quot;elbow&quot;:&quot;vertical&quot;,&quot;curved&quot;:0,&quot;rounded&quot;:0};" vertex="1" parent="1">
          <mxGeometry x="360" y="130" width="100" height="300" as="geometry" />
        </mxCell>
        <mxCell id="8OTg5D09Tg-OPyaiiAYL-4" value="" style="html=1;points=[];perimeter=orthogonalPerimeter;outlineConnect=0;targetShapes=umlLifeline;portConstraint=eastwest;newEdgeStyle={&quot;edgeStyle&quot;:&quot;elbowEdgeStyle&quot;,&quot;elbow&quot;:&quot;vertical&quot;,&quot;curved&quot;:0,&quot;rounded&quot;:0};" vertex="1" parent="8OTg5D09Tg-OPyaiiAYL-3">
          <mxGeometry x="45" y="90" width="10" height="170" as="geometry" />
        </mxCell>
        <mxCell id="8OTg5D09Tg-OPyaiiAYL-7" value=":Collision" style="shape=umlLifeline;perimeter=lifelinePerimeter;whiteSpace=wrap;html=1;container=0;dropTarget=0;collapsible=0;recursiveResize=0;outlineConnect=0;portConstraint=eastwest;newEdgeStyle={&quot;edgeStyle&quot;:&quot;elbowEdgeStyle&quot;,&quot;elbow&quot;:&quot;vertical&quot;,&quot;curved&quot;:0,&quot;rounded&quot;:0};" vertex="1" parent="1">
          <mxGeometry x="520" y="130" width="100" height="300" as="geometry" />
        </mxCell>
        <mxCell id="8OTg5D09Tg-OPyaiiAYL-8" value="" style="html=1;points=[];perimeter=orthogonalPerimeter;outlineConnect=0;targetShapes=umlLifeline;portConstraint=eastwest;newEdgeStyle={&quot;edgeStyle&quot;:&quot;elbowEdgeStyle&quot;,&quot;elbow&quot;:&quot;vertical&quot;,&quot;curved&quot;:0,&quot;rounded&quot;:0};" vertex="1" parent="8OTg5D09Tg-OPyaiiAYL-7">
          <mxGeometry x="45" y="100" width="10" height="170" as="geometry" />
        </mxCell>
        <mxCell id="8OTg5D09Tg-OPyaiiAYL-9" value="" style="html=1;verticalAlign=bottom;endArrow=block;edgeStyle=elbowEdgeStyle;elbow=vertical;curved=0;rounded=0;" edge="1" parent="1" source="8OTg5D09Tg-OPyaiiAYL-4" target="8OTg5D09Tg-OPyaiiAYL-8">
          <mxGeometry relative="1" as="geometry">
            <mxPoint x="515" y="220" as="sourcePoint" />
            <Array as="points">
              <mxPoint x="420" y="230" />
            </Array>
          </mxGeometry>
        </mxCell>
        <mxCell id="8OTg5D09Tg-OPyaiiAYL-13" value=":Enemy" style="shape=umlLifeline;perimeter=lifelinePerimeter;whiteSpace=wrap;html=1;container=0;dropTarget=0;collapsible=0;recursiveResize=0;outlineConnect=0;portConstraint=eastwest;newEdgeStyle={&quot;edgeStyle&quot;:&quot;elbowEdgeStyle&quot;,&quot;elbow&quot;:&quot;vertical&quot;,&quot;curved&quot;:0,&quot;rounded&quot;:0};" vertex="1" parent="1">
          <mxGeometry x="680" y="130" width="100" height="300" as="geometry" />
        </mxCell>
        <mxCell id="8OTg5D09Tg-OPyaiiAYL-14" value="" style="html=1;points=[];perimeter=orthogonalPerimeter;outlineConnect=0;targetShapes=umlLifeline;portConstraint=eastwest;newEdgeStyle={&quot;edgeStyle&quot;:&quot;elbowEdgeStyle&quot;,&quot;elbow&quot;:&quot;vertical&quot;,&quot;curved&quot;:0,&quot;rounded&quot;:0};" vertex="1" parent="8OTg5D09Tg-OPyaiiAYL-13">
          <mxGeometry x="45" y="100" width="10" height="180" as="geometry" />
        </mxCell>
        <mxCell id="8OTg5D09Tg-OPyaiiAYL-17" value=":Buff" style="shape=umlLifeline;perimeter=lifelinePerimeter;whiteSpace=wrap;html=1;container=0;dropTarget=0;collapsible=0;recursiveResize=0;outlineConnect=0;portConstraint=eastwest;newEdgeStyle={&quot;edgeStyle&quot;:&quot;elbowEdgeStyle&quot;,&quot;elbow&quot;:&quot;vertical&quot;,&quot;curved&quot;:0,&quot;rounded&quot;:0};" vertex="1" parent="1">
          <mxGeometry x="850" y="130" width="100" height="300" as="geometry" />
        </mxCell>
        <mxCell id="8OTg5D09Tg-OPyaiiAYL-18" value="" style="html=1;points=[];perimeter=orthogonalPerimeter;outlineConnect=0;targetShapes=umlLifeline;portConstraint=eastwest;newEdgeStyle={&quot;edgeStyle&quot;:&quot;elbowEdgeStyle&quot;,&quot;elbow&quot;:&quot;vertical&quot;,&quot;curved&quot;:0,&quot;rounded&quot;:0};" vertex="1" parent="8OTg5D09Tg-OPyaiiAYL-17">
          <mxGeometry x="45" y="120" width="10" height="160" as="geometry" />
        </mxCell>
        <mxCell id="8OTg5D09Tg-OPyaiiAYL-21" value="" style="html=1;verticalAlign=bottom;endArrow=block;edgeStyle=elbowEdgeStyle;elbow=vertical;curved=0;rounded=0;" edge="1" parent="1" source="8OTg5D09Tg-OPyaiiAYL-18" target="8OTg5D09Tg-OPyaiiAYL-14">
          <mxGeometry relative="1" as="geometry">
            <mxPoint x="890" y="290" as="sourcePoint" />
            <Array as="points">
              <mxPoint x="800" y="290" />
              <mxPoint x="830" y="290" />
            </Array>
            <mxPoint x="739.9999999999998" y="290" as="targetPoint" />
          </mxGeometry>
        </mxCell>
        <mxCell id="8OTg5D09Tg-OPyaiiAYL-26" value="&lt;p style=&quot;margin: 0px; font-variant-numeric: normal; font-variant-east-asian: normal; font-variant-alternates: normal; font-size-adjust: none; font-kerning: auto; font-optical-sizing: auto; font-feature-settings: normal; font-variation-settings: normal; font-variant-position: normal; font-stretch: normal; line-height: normal; font-family: &amp;quot;.AppleSystemUIFontMonospaced&amp;quot;; text-align: start; text-wrap: wrap;&quot; class=&quot;p1&quot;&gt;&lt;br&gt;&lt;/p&gt;" style="html=1;verticalAlign=bottom;endArrow=block;edgeStyle=elbowEdgeStyle;elbow=vertical;curved=0;rounded=0;" edge="1" parent="1" target="8OTg5D09Tg-OPyaiiAYL-4">
          <mxGeometry relative="1" as="geometry">
            <mxPoint x="255" y="230.01111111111106" as="sourcePoint" />
            <Array as="points" />
            <mxPoint x="400" y="230" as="targetPoint" />
          </mxGeometry>
        </mxCell>
        <mxCell id="8OTg5D09Tg-OPyaiiAYL-30" value="&lt;font style=&quot;font-size: 11px;&quot;&gt;generate plane&lt;/font&gt;" style="text;html=1;align=center;verticalAlign=middle;whiteSpace=wrap;rounded=0;" vertex="1" parent="1">
          <mxGeometry x="130" y="180" width="90" height="30" as="geometry" />
        </mxCell>
        <mxCell id="8OTg5D09Tg-OPyaiiAYL-31" value="&lt;span style=&quot;font-size: 11px;&quot;&gt;fire bullet&lt;/span&gt;" style="text;html=1;align=center;verticalAlign=middle;whiteSpace=wrap;rounded=0;" vertex="1" parent="1">
          <mxGeometry x="290" y="200" width="90" height="30" as="geometry" />
        </mxCell>
        <mxCell id="8OTg5D09Tg-OPyaiiAYL-32" value="&lt;span style=&quot;font-size: 11px;&quot;&gt;bullet move&lt;/span&gt;" style="text;html=1;align=center;verticalAlign=middle;whiteSpace=wrap;rounded=0;" vertex="1" parent="1">
          <mxGeometry x="450" y="200" width="90" height="30" as="geometry" />
        </mxCell>
        <mxCell id="8OTg5D09Tg-OPyaiiAYL-33" value="" style="html=1;verticalAlign=bottom;endArrow=block;edgeStyle=elbowEdgeStyle;elbow=vertical;curved=0;rounded=0;" edge="1" parent="1">
          <mxGeometry relative="1" as="geometry">
            <mxPoint x="575" y="250" as="sourcePoint" />
            <Array as="points">
              <mxPoint x="650" y="250" />
            </Array>
            <mxPoint x="725" y="250" as="targetPoint" />
          </mxGeometry>
        </mxCell>
        <mxCell id="8OTg5D09Tg-OPyaiiAYL-34" value="&lt;span style=&quot;font-size: 11px;&quot;&gt;check collision&lt;/span&gt;" style="text;html=1;align=center;verticalAlign=middle;whiteSpace=wrap;rounded=0;" vertex="1" parent="1">
          <mxGeometry x="600" y="220" width="90" height="30" as="geometry" />
        </mxCell>
        <mxCell id="8OTg5D09Tg-OPyaiiAYL-35" value="" style="html=1;verticalAlign=bottom;endArrow=block;edgeStyle=elbowEdgeStyle;elbow=vertical;curved=0;rounded=0;" edge="1" parent="1" source="8OTg5D09Tg-OPyaiiAYL-14" target="8OTg5D09Tg-OPyaiiAYL-18">
          <mxGeometry relative="1" as="geometry">
            <mxPoint x="740" y="250" as="sourcePoint" />
            <Array as="points">
              <mxPoint x="840" y="260" />
              <mxPoint x="895" y="250" />
            </Array>
            <mxPoint x="900" y="250" as="targetPoint" />
          </mxGeometry>
        </mxCell>
        <mxCell id="8OTg5D09Tg-OPyaiiAYL-36" value="&lt;span style=&quot;font-size: 11px;&quot;&gt;enemy hit&lt;/span&gt;" style="text;html=1;align=center;verticalAlign=middle;whiteSpace=wrap;rounded=0;" vertex="1" parent="1">
          <mxGeometry x="770" y="230" width="90" height="30" as="geometry" />
        </mxCell>
        <mxCell id="8OTg5D09Tg-OPyaiiAYL-37" value="&lt;span style=&quot;font-size: 11px;&quot;&gt;enemy speed up&lt;/span&gt;" style="text;html=1;align=center;verticalAlign=middle;whiteSpace=wrap;rounded=0;" vertex="1" parent="1">
          <mxGeometry x="770" y="260" width="90" height="30" as="geometry" />
        </mxCell>
        <mxCell id="8OTg5D09Tg-OPyaiiAYL-40" value="" style="html=1;verticalAlign=bottom;endArrow=block;edgeStyle=elbowEdgeStyle;elbow=vertical;curved=0;rounded=0;" edge="1" parent="1" target="aM9ryv3xv72pqoxQDRHE-6">
          <mxGeometry relative="1" as="geometry">
            <mxPoint x="895" y="320" as="sourcePoint" />
            <Array as="points">
              <mxPoint x="800" y="320" />
              <mxPoint x="830" y="320" />
            </Array>
            <mxPoint x="260" y="320" as="targetPoint" />
          </mxGeometry>
        </mxCell>
        <mxCell id="8OTg5D09Tg-OPyaiiAYL-41" value="&lt;span style=&quot;font-size: 11px;&quot;&gt;shield&lt;/span&gt;" style="text;html=1;align=center;verticalAlign=middle;whiteSpace=wrap;rounded=0;" vertex="1" parent="1">
          <mxGeometry x="280" y="290" width="90" height="30" as="geometry" />
        </mxCell>
        <mxCell id="8OTg5D09Tg-OPyaiiAYL-42" value="" style="html=1;verticalAlign=bottom;endArrow=block;edgeStyle=elbowEdgeStyle;elbow=vertical;curved=0;rounded=0;" edge="1" parent="1" source="8OTg5D09Tg-OPyaiiAYL-18" target="aM9ryv3xv72pqoxQDRHE-6">
          <mxGeometry relative="1" as="geometry">
            <mxPoint x="890" y="350" as="sourcePoint" />
            <Array as="points">
              <mxPoint x="795" y="350" />
              <mxPoint x="825" y="350" />
            </Array>
            <mxPoint x="260" y="350" as="targetPoint" />
          </mxGeometry>
        </mxCell>
        <mxCell id="8OTg5D09Tg-OPyaiiAYL-43" value="&lt;span style=&quot;font-size: 11px;&quot;&gt;speed up&lt;/span&gt;" style="text;html=1;align=center;verticalAlign=middle;whiteSpace=wrap;rounded=0;" vertex="1" parent="1">
          <mxGeometry x="280" y="320" width="90" height="30" as="geometry" />
        </mxCell>
        <mxCell id="8OTg5D09Tg-OPyaiiAYL-44" value="" style="html=1;verticalAlign=bottom;endArrow=block;edgeStyle=elbowEdgeStyle;elbow=vertical;curved=0;rounded=0;" edge="1" parent="1" source="8OTg5D09Tg-OPyaiiAYL-18">
          <mxGeometry relative="1" as="geometry">
            <mxPoint x="890" y="370" as="sourcePoint" />
            <Array as="points">
              <mxPoint x="480" y="370" />
              <mxPoint x="510" y="370" />
            </Array>
            <mxPoint x="415" y="370" as="targetPoint" />
          </mxGeometry>
        </mxCell>
        <mxCell id="8OTg5D09Tg-OPyaiiAYL-45" value="&lt;span style=&quot;font-size: 11px;&quot;&gt;bullet speed up&lt;/span&gt;" style="text;html=1;align=center;verticalAlign=middle;whiteSpace=wrap;rounded=0;" vertex="1" parent="1">
          <mxGeometry x="440" y="360" width="90" height="30" as="geometry" />
        </mxCell>
        <mxCell id="8OTg5D09Tg-OPyaiiAYL-46" value="" style="html=1;verticalAlign=bottom;endArrow=block;edgeStyle=elbowEdgeStyle;elbow=vertical;curved=0;rounded=0;" edge="1" parent="1">
          <mxGeometry relative="1" as="geometry">
            <mxPoint x="895" y="299.9999999999999" as="sourcePoint" />
            <Array as="points">
              <mxPoint x="150" y="300" />
              <mxPoint x="645" y="309.44" />
              <mxPoint x="675" y="309.44" />
            </Array>
            <mxPoint x="95" y="299.9999999999999" as="targetPoint" />
          </mxGeometry>
        </mxCell>
        <mxCell id="8OTg5D09Tg-OPyaiiAYL-48" value="&lt;span style=&quot;font-size: 11px;&quot;&gt;fog&lt;/span&gt;" style="text;html=1;align=center;verticalAlign=middle;whiteSpace=wrap;rounded=0;" vertex="1" parent="1">
          <mxGeometry x="120" y="270" width="90" height="30" as="geometry" />
        </mxCell>
        <mxCell id="8OTg5D09Tg-OPyaiiAYL-49" value="" style="html=1;verticalAlign=bottom;endArrow=block;edgeStyle=elbowEdgeStyle;elbow=vertical;curved=0;rounded=0;" edge="1" parent="1">
          <mxGeometry relative="1" as="geometry">
            <mxPoint x="895" y="400" as="sourcePoint" />
            <Array as="points">
              <mxPoint x="800" y="400" />
              <mxPoint x="830" y="400" />
            </Array>
            <mxPoint x="735" y="400" as="targetPoint" />
          </mxGeometry>
        </mxCell>
        <mxCell id="8OTg5D09Tg-OPyaiiAYL-50" value="&lt;span style=&quot;font-size: 11px;&quot;&gt;enemy damage up&lt;/span&gt;" style="text;html=1;align=center;verticalAlign=middle;whiteSpace=wrap;rounded=0;" vertex="1" parent="1">
          <mxGeometry x="770" y="370" width="100" height="30" as="geometry" />
        </mxCell>
      </root>
    </mxGraphModel>
  </diagram>
</mxfile>
